<svg width="1280" height="640" viewBox="0 0 1280 640" fill="none" xmlns="http://www.w3.org/2000/svg">
<g clip-path="url(#clip0_87_4)">
<rect width="1280" height="640" fill="white"/>
<path d="M1051.5 1075C1225.19 1075 1366 934.194 1366 760.5C1366 586.806 1225.19 446 1051.5 446C877.806 446 737 586.806 737 760.5C737 934.194 877.806 1075 1051.5 1075Z" fill="#F1F2F4" fill-opacity="0.55"/>
<path d="M401.758 507L378.941 590.543L318 529.012L401.758 507Z" fill="#F1F2F4"/>
<path d="M845.311 150.317C843.534 143.621 849.673 137.512 856.36 139.322L868.064 142.489C874.752 144.298 876.972 152.669 872.061 157.556L863.467 166.108C858.556 170.995 850.197 168.733 848.42 162.036L845.311 150.317Z" fill="#D0D1D4"/>
<path d="M49.2267 -230.68C85.7982 -242.978 125.956 -227.564 144.907 -193.952L163.346 -161.237C172.434 -145.116 186.809 -132.623 204.038 -125.866L239.001 -112.155C274.925 -98.0667 295.776 -60.4477 288.688 -22.5177L281.785 14.3989C278.391 32.5899 281.365 51.398 290.218 67.6484L308.194 100.626C326.654 134.509 318.449 176.731 288.638 201.231L259.617 225.075C245.321 236.825 235.514 253.147 231.856 271.288L224.42 308.101C216.784 345.924 183.358 372.993 144.772 372.598L107.219 372.214C88.7159 372.025 70.7113 378.225 56.2436 389.767L26.8882 413.187C-3.27131 437.255 -46.2831 436.508 -75.5815 411.401L-104.104 386.968C-118.159 374.928 -135.936 368.104 -154.439 367.647L-191.978 366.72C-230.556 365.768 -263.015 337.55 -269.327 299.482L-275.475 262.433C-278.5 244.176 -287.73 227.521 -301.607 215.279L-329.774 190.436C-358.717 164.911 -365.442 122.429 -345.807 89.2105L-326.7 56.8805C-317.285 40.9482 -313.648 22.2561 -316.409 3.95689L-322.017 -33.1775C-327.781 -71.3323 -305.628 -108.201 -269.234 -121.026L-233.816 -133.509C-216.359 -139.661 -201.557 -151.644 -191.914 -167.439L-172.337 -199.489C-152.226 -232.42 -111.562 -246.423 -75.4392 -232.856L-40.2768 -219.651C-22.9554 -213.144 -3.91179 -212.812 13.6303 -218.71L49.2267 -230.68Z" fill="#F1F2F4" fill-opacity="0.54"/>
<path d="M1303.59 -313.392C1336.36 -324.41 1372.33 -310.601 1389.3 -280.489L1406.13 -250.654C1414.56 -235.691 1427.9 -224.096 1443.89 -217.825L1475.78 -205.32C1507.96 -192.698 1526.64 -158.997 1520.29 -125.017L1514 -91.3498C1510.85 -74.4656 1513.61 -57.0089 1521.83 -41.9263L1538.21 -11.8508C1554.75 18.5038 1547.41 56.328 1520.7 78.2759L1494.24 100.023C1480.96 110.928 1471.86 126.077 1468.46 142.915L1461.68 176.487C1454.84 210.373 1424.9 234.621 1390.33 234.268L1356.08 233.918C1338.91 233.743 1322.2 239.496 1308.77 250.21L1282 271.571C1254.98 293.131 1216.45 292.456 1190.2 269.968L1164.19 247.686C1151.14 236.511 1134.64 230.177 1117.47 229.753L1083.23 228.907C1048.67 228.055 1019.59 202.775 1013.94 168.672L1008.34 134.883C1005.53 117.937 996.959 102.48 984.076 91.1174L958.388 68.4615C932.466 45.5939 926.437 7.53608 944.025 -22.2228L961.451 -51.7077C970.193 -66.4943 973.568 -83.8433 971.005 -100.827L965.89 -134.695C960.731 -168.875 980.571 -201.904 1013.18 -213.394L1045.48 -224.779C1061.68 -230.489 1075.41 -241.611 1084.37 -256.27L1102.22 -285.5C1120.23 -315.001 1156.67 -327.546 1189.03 -315.391L1221.09 -303.349C1237.17 -297.309 1254.85 -297.001 1271.12 -302.475L1303.59 -313.392Z" stroke="#CCCCCC" stroke-opacity="0.28" stroke-width="4"/>
<path d="M409.482 373.587V266.011H435.231L463.823 337.728L494.627 266.011H518.322V373.587H495.89V307.714L470.615 368.216H457.662L431.913 308.346V373.587H409.482ZM563.593 373.587H541.951V300.132H563.593V373.587ZM552.693 288.284C549.06 288.284 546.216 287.179 543.847 284.809C541.477 282.44 540.372 279.596 540.372 275.963C540.372 272.33 541.635 269.328 544.005 266.959C546.374 264.589 549.218 263.483 552.851 263.483C556.326 263.483 559.328 264.589 561.697 266.959C564.067 269.328 565.173 272.33 565.173 275.805C565.173 279.438 564.067 282.282 561.697 284.651C559.328 287.021 556.326 288.284 552.693 288.284ZM615.649 375.956C603.485 375.956 594.323 372.481 588.162 365.531C582.001 358.738 578.842 349.26 578.842 337.096C578.842 325.091 581.843 315.455 587.688 308.346C593.533 301.238 602.537 297.762 614.859 297.762C620.072 297.762 624.811 298.394 629.076 299.816C633.341 301.238 637.606 303.923 642.029 307.714L630.655 322.563C627.97 320.194 625.6 318.456 623.231 317.35C620.861 316.403 618.65 315.929 616.438 315.929C610.909 315.929 606.96 317.824 604.433 321.773C601.747 325.723 600.484 330.778 600.484 336.938C600.484 344.047 601.905 349.26 604.749 352.577C607.434 356.052 611.383 357.79 616.438 357.79C619.44 357.79 622.125 357.158 624.653 356.052C627.022 354.947 629.392 353.051 631.761 350.366L643.925 363.161C640.291 367.742 636.026 370.901 631.445 372.955C626.864 375.009 621.493 375.956 615.649 375.956ZM677.889 373.587H656.089V300.132H675.677L675.835 311.979C677.889 308.03 681.048 305.029 685.313 302.659C689.579 300.448 694.16 299.342 699.373 299.342H702.532V319.878H696.371C690.842 319.878 686.419 321.773 683.102 325.565C679.627 329.514 677.889 334.727 677.889 341.203V373.587ZM772.357 365.688C766.196 372.481 757.35 375.956 745.977 375.956C734.603 375.956 725.757 372.481 719.596 365.688C713.435 358.896 710.276 349.26 710.276 336.78C710.276 324.459 713.435 314.823 719.596 308.03C725.757 301.238 734.603 297.762 745.977 297.762C757.35 297.762 766.196 301.238 772.357 308.03C778.518 314.823 781.677 324.459 781.677 336.78C781.677 349.26 778.518 358.896 772.357 365.688ZM735.551 352.419C737.92 356.052 741.395 357.79 745.977 357.79C750.558 357.79 754.033 356.052 756.402 352.419C758.772 348.786 760.036 343.573 760.036 336.78C760.036 330.304 758.772 325.249 756.402 321.458C754.033 317.824 750.558 315.929 745.977 315.929C741.395 315.929 737.92 317.824 735.551 321.458C733.181 325.249 731.917 330.304 731.917 336.78C731.917 343.573 733.181 348.786 735.551 352.419ZM842.744 376.114C826.789 376.114 814.626 371.217 806.254 361.265C797.881 351.471 793.616 338.044 793.616 320.826C793.616 309.136 795.512 299.026 799.461 290.338C803.252 281.808 808.939 275.173 816.363 270.434C823.788 265.853 832.95 263.483 843.534 263.483C850.011 263.483 856.329 264.273 862.332 265.695C868.177 267.275 874.496 269.96 880.972 273.751L869.757 291.286C864.544 288.6 859.963 286.863 855.697 285.915C851.432 284.967 847.483 284.493 843.692 284.493C834.846 284.493 828.211 287.494 823.788 293.655C819.207 299.816 816.995 308.504 816.995 320.036C816.995 331.567 819.207 340.256 823.472 346.1C827.737 351.945 834.53 354.947 844.166 354.947C846.535 354.947 849.063 354.789 851.59 354.473C854.118 354.315 856.961 353.841 859.963 353.051V331.883H842.27L848.431 313.085H880.972V366.952C878.129 369.006 874.654 370.743 870.388 372.165C866.123 373.587 861.7 374.535 856.961 375.167C852.064 375.798 847.325 376.114 842.744 376.114ZM968.926 373.587H945.863V266.011H981.722C994.517 266.011 1004.63 268.854 1011.89 274.383C1019.16 279.912 1022.79 288.126 1022.79 298.868C1022.79 306.293 1021.21 312.453 1017.9 317.508C1014.58 322.563 1009.68 326.355 1003.52 328.882L1028.01 373.587H1004L982.038 332.673H981.564H968.926V373.587ZM968.926 285.125V313.559H981.248C993.411 313.559 999.414 309.136 999.414 300.132C999.414 290.18 993.411 285.125 981.248 285.125H968.926ZM1067.35 351.629H1113V373.587H1044.28V266.011H1113V287.968H1067.35V308.504H1107.47L1100.99 328.882H1067.35V351.629Z" fill="black"/>
<path fill-rule="evenodd" clip-rule="evenodd" d="M178.152 344.268C164.616 330.732 164.616 308.787 178.151 295.252L231.252 242.151C244.787 228.616 266.732 228.616 280.268 242.151L333.368 295.252C346.903 308.787 346.903 330.732 333.368 344.268L301.802 375.834C289.773 363.756 273.126 356.281 254.733 356.281C236.863 356.281 220.64 363.338 208.7 374.816L178.152 344.268ZM254.733 362.058C271.531 362.058 286.734 368.886 297.717 379.918L280.268 397.368C266.732 410.903 244.787 410.903 231.252 397.368L212.786 378.902C223.68 368.468 238.458 362.058 254.733 362.058ZM280.728 318.734C280.728 333.09 269.09 344.728 254.733 344.728C240.377 344.728 228.739 333.09 228.739 318.734C228.739 304.377 240.377 292.739 254.733 292.739C269.09 292.739 280.728 304.377 280.728 318.734Z" fill="#FF0000"/>
</g>
<defs>
<clipPath id="clip0_87_4">
<rect width="1280" height="640" fill="white"/>
</clipPath>
</defs>
</svg>
